<svg width="156" height="120" fill="none" xmlns="http://www.w3.org/2000/svg"><path d="M156 36.131c-6.139 0-9.31-3.73-11.857-6.729-2.323-2.733-4.157-4.892-7.889-4.892s-5.571 2.159-7.893 4.892c-2.547 2.999-5.719 6.729-11.858 6.729-6.138 0-9.31-3.73-11.857-6.729-2.323-2.733-4.157-4.892-7.893-4.892-3.736 0-5.57 2.159-7.893 4.892-2.547 2.999-5.718 6.729-11.857 6.729v-5.225c3.736 0 5.57-2.159 7.893-4.892 2.547-2.995 5.718-6.725 11.857-6.725 6.139 0 9.311 3.73 11.858 6.725 2.322 2.733 4.156 4.892 7.892 4.892 3.737 0 5.571-2.159 7.893-4.892 2.547-2.995 5.715-6.725 11.858-6.725 6.143 0 9.306 3.73 11.853 6.725 2.323 2.733 4.157 4.892 7.893 4.892v5.225z" fill="#1D71B8"/><path d="M116.499 16.842c-6.138 0-9.31-3.73-11.857-6.725-2.323-2.733-4.157-4.892-7.893-4.892-3.736 0-5.566 2.159-7.889 4.892-2.547 2.995-5.718 6.725-11.857 6.725v-5.225c3.732 0 5.57-2.159 7.893-4.892C87.443 3.726 90.61 0 96.749 0c6.139 0 9.311 3.726 11.858 6.725 2.322 2.733 4.16 4.892 7.892 4.892v5.225z" fill="#E30613"/><path d="M156 55.418c-6.139 0-9.311-3.73-11.858-6.725-2.322-2.733-4.156-4.891-7.892-4.891-3.737 0-5.571 2.158-7.893 4.891-2.547 2.995-5.719 6.725-11.858 6.725v-5.225c3.736 0 5.571-2.159 7.893-4.888 2.547-2.999 5.719-6.729 11.858-6.729 6.138 0 9.31 3.73 11.857 6.729 2.323 2.73 4.157 4.888 7.893 4.888v5.225z" fill="#17364B"/><path fill-rule="evenodd" clip-rule="evenodd" d="M7.256 45.26L0 63.062l2.41-.016 1.767-4.461h8.665l1.766 4.477h2.507L9.863 45.26H7.256zm4.842 11.347H4.922l3.475-8.678h.249l3.452 8.678zm6.671-.575v7.03h2.207v-7.03c0-2.99 1.558-4.313 4.004-4.313 2.447 0 4.049 1.198 4.049 4.14v7.224h2.162V55.88c0-4.261-2.362-6.03-6.21-6.03-3.85 0-6.212 1.946-6.212 6.182zM59.74 50.2l-3.203 10.025h-.224L53.084 50.2H50.5l-3.232 10.025h-.224L43.842 50.2H37.49v-4.936h-2.186V50.2h-3.152v1.869h3.152v10.997h2.186V52.07h4.654l3.736 10.997h2.507l3.255-10.024h.224l3.252 10.024h2.511L61.998 50.2h-2.259zm9.323-.35c-3.652 0-6.483 2.32-6.483 6.781 0 4.064 2.434 6.777 6.47 6.765 2.6 0 4.862-1.302 5.607-3.714H72.49a3.774 3.774 0 01-3.428 1.97c-2.319 0-4.125-1.58-4.321-4.422h10.48a6.82 6.82 0 00.052-.776c0-4.112-2.559-6.604-6.211-6.604zm-.044 1.745c2.158 0 3.748 1.495 3.972 3.963h-8.173c.276-2.569 2.115-3.963 4.2-3.963zm7.985 11.467V50.2h1.938l.244 2.042h.253c.94-1.395 2.458-2.042 5.013-2.042v2.042c-.32-.024-.668-.048-.965-.048-3.007 0-4.3 1.668-4.3 4.686v6.182h-2.183zM86.269 50.2v17.602l2.179-.005v-6.632h.248c1.165 1.644 2.807 2.243 4.67 2.243 3.427 0 6.066-2.363 6.066-6.777 0-4.413-2.63-6.78-6.059-6.78-1.89 0-3.552.622-4.669 2.318h-.248l-.249-1.97H86.27zm6.548 1.495c2.59 0 4.405 1.793 4.405 4.936h-.008c0 3.16-1.854 4.936-4.397 4.936s-4.405-1.668-4.405-4.936 1.814-4.936 4.405-4.936zM0 89.423V71.62h2.367l6.042 9.474h.249l6.007-9.482h2.366v17.803h-2.186V75.949h-.248l-4.958 7.673H7.38L2.423 75.95h-.249v13.466L0 89.423zM34.355 76.56v12.863l2.186.004v-6.182c0-3.02 1.294-4.687 4.297-4.687.3 0 .645.024.97.048V76.56c-2.56 0-4.073.651-5.018 2.046h-.249l-.248-2.046h-1.938zm11.445 0h-2.187v12.867H45.8V76.56zm7.356-4.936v4.936h7.6v12.863H58.57V78.429h-5.414v10.994h-2.187V78.429h-3.155V76.56h3.155v-4.936h2.187zm10.288 17.799v-7.03c0-4.241 2.034-6.183 5.314-6.183 2.138 0 3.628.748 4.445 2.468h.252c.8-1.672 2.287-2.468 4.373-2.468 3.304 0 5.314 1.769 5.314 6.006v7.207h-2.183v-7.207c0-2.939-1.269-4.136-3.28-4.136-2.01 0-3.303 1.322-3.303 4.313v7.03h-2.163v-7.207c0-2.939-1.265-4.136-3.303-4.136-2.038 0-3.276 1.322-3.276 4.313v7.03h-2.19zM91.716 76.21c-3.653 0-6.484 2.316-6.484 6.781 0 4.064 2.435 6.781 6.484 6.765 2.582 0 4.84-1.302 5.586-3.714h-2.159a3.785 3.785 0 01-3.428 1.97c-2.322 0-4.124-1.58-4.324-4.422h10.483c.024-.177.049-.575.049-.776 0-4.111-2.555-6.604-6.207-6.604zm-.049 1.745c2.163 0 3.753 1.495 3.977 3.963H87.47c.272-2.568 2.11-3.963 4.196-3.963zm-66.19-1.745c-3.873 0-6.708 2.195-6.708 6.781 0 4.587 2.463 6.781 6.335 6.781 1.887 0 3.528-.623 4.67-2.319h.248l.248 1.97h1.914V82.99c0-4.586-2.779-6.78-6.707-6.78zm-4.481 6.781c0-3.368 1.866-4.964 4.497-4.964 2.63 0 4.497 1.608 4.497 4.964 0 3.357-1.838 4.96-4.497 4.96-2.66 0-4.497-1.631-4.497-4.96zm11.188 25.862c0-4.586 2.832-6.781 6.704-6.781 3.924 0 6.707 2.195 6.691 6.781v6.432h-1.91l-.248-1.97h-.232c-1.146 1.696-2.783 2.319-4.674 2.319-3.872 0-6.33-2.194-6.33-6.781zm6.704-4.96c-2.631 0-4.493 1.596-4.493 4.96 0 3.34 1.834 4.96 4.493 4.96 2.659 0 4.497-1.607 4.497-4.96 0-3.352-1.866-4.96-4.497-4.96zM0 115.281l7.208-17.723h2.595l7.208 17.723h-2.499l-1.726-4.442h-8.61l-1.753 4.442H0zm4.898-6.432h7.148l-3.436-8.638h-.25l-3.463 8.638zm19.65-6.724c-3.536 0-6.455 2.186-6.455 6.752 0 4.567 2.903 6.753 6.455 6.753 2.843 0 5.318-1.656 5.738-4.47h-2.13c-.316 1.588-1.874 2.657-3.604 2.657-2.423 0-4.253-1.712-4.253-4.94 0-3.227 1.83-4.94 4.253-4.94 1.726 0 3.284 1.049 3.604 2.657h2.13c-.42-2.862-2.895-4.469-5.738-4.469zm22.946 6.752c0-4.369 2.623-6.752 6.058-6.752 1.83 0 3.488.594 4.65 2.234h.248v-6.785h2.15v17.723h-1.902l-.248-1.958h-.248c-1.138 1.66-2.767 2.307-4.65 2.307-3.435-.016-6.058-2.375-6.058-6.769zm10.98 0c0-3.251-1.854-4.916-4.405-4.916-2.55 0-4.377 1.789-4.377 4.916 0 3.128 1.83 4.916 4.377 4.916 2.547 0 4.405-1.664 4.405-4.916zm10.624-6.752c-3.652 0-6.455 2.311-6.455 6.752 0 4.048 2.439 6.753 6.471 6.753 2.57 0 4.821-1.286 5.562-3.698h-2.15a3.772 3.772 0 01-3.412 1.962c-2.327 0-4.105-1.608-4.305-4.422h10.424c.024-.173.048-.571.048-.767 0-4.096-2.53-6.58-6.183-6.58zm-.048 1.74c2.15 0 3.732 1.487 3.956 3.943H64.87c.272-2.556 2.103-3.943 4.18-3.943zm8.41 11.416v-6.999c0-4.22 2.026-6.157 5.294-6.157 2.126 0 3.603.747 4.424 2.459h.249c.8-1.664 2.274-2.459 4.353-2.459 3.287 0 5.29 1.764 5.29 5.985v7.171h-2.175v-7.171c0-2.931-1.261-4.124-3.263-4.124-2.003 0-3.292 1.318-3.292 4.296v6.999h-2.15v-7.171c0-2.931-1.262-4.124-3.288-4.124-2.027 0-3.268 1.318-3.268 4.296v6.999H77.46zm25.724 0L101.182 120h2.367l7.368-17.526h-2.299l-4.08 10.077h-.248l-4.101-10.077h-2.375l5.37 12.807zM44.706 74.418c.768 0 1.39-.625 1.39-1.395s-.622-1.395-1.39-1.395c-.767 0-1.39.624-1.39 1.395 0 .77.623 1.395 1.39 1.395zm16.347-1.395c0 .77-.622 1.395-1.39 1.395-.767 0-1.39-.625-1.39-1.395s.623-1.395 1.39-1.395c.768 0 1.39.624 1.39 1.395z" fill="#17364B"/></svg>